<svg id="d16" width="2030.9053955078125" xmlns="http://www.w3.org/2000/svg" class="flowchart" height="202.7132568359375" viewBox="0 0 2030.9053955078125 202.7132568359375" role="graphics-document document" aria-roledescription="flowchart-v2"><style>svg{font-family:ui-sans-serif,system-ui,-apple-system,"Segoe UI",Roboto,Helvetica,Arial,sans-serif}#d16{font-size:14px;fill:#33312e;}@keyframes edge-animation-frame{from{stroke-dashoffset:0;}}@keyframes dash{to{stroke-dashoffset:0;}}#d16 .edge-animation-slow{stroke-dasharray:9,5!important;stroke-dashoffset:900;animation:dash 50s linear infinite;stroke-linecap:round;}#d16 .edge-animation-fast{stroke-dasharray:9,5!important;stroke-dashoffset:900;animation:dash 20s linear infinite;stroke-linecap:round;}#d16 .error-icon{fill:#f4f1ee;}#d16 .error-text{fill:#0b0e11;stroke:#0b0e11;}#d16 .edge-thickness-normal{stroke-width:1px;}#d16 .edge-thickness-thick{stroke-width:3.5px;}#d16 .edge-pattern-solid{stroke-dasharray:0;}#d16 .edge-thickness-invisible{stroke-width:0;fill:none;}#d16 .edge-pattern-dashed{stroke-dasharray:3;}#d16 .edge-pattern-dotted{stroke-dasharray:2;}#d16 .marker{fill:#7d7871;stroke:#7d7871;}#d16 .marker.cross{stroke:#7d7871;}#d16 svg{font-size:14px;}#d16 p{margin:0;}#d16 .label{color:#191b1c;}#d16 .cluster-label text{fill:#0b0e11;}#d16 .cluster-label span{color:#0b0e11;}#d16 .cluster-label span p{background-color:transparent;}#d16 .label text,#d16 span{fill:#191b1c;color:#191b1c;}#d16 .node rect,#d16 .node circle,#d16 .node ellipse,#d16 .node polygon,#d16 .node path{fill:#ffffff;stroke:#9a948d;stroke-width:1px;}#d16 .rough-node .label text,#d16 .node .label text,#d16 .image-shape .label,#d16 .icon-shape .label{text-anchor:middle;}#d16 .node .katex path{fill:#000;stroke:#000;stroke-width:1px;}#d16 .rough-node .label,#d16 .node .label,#d16 .image-shape .label,#d16 .icon-shape .label{text-align:center;}#d16 .node.clickable{cursor:pointer;}#d16 .root .anchor path{fill:#7d7871!important;stroke-width:0;stroke:#7d7871;}#d16 .arrowheadPath{fill:rgba(255, 255, 255, 0);}#d16 .edgePath .path{stroke:#7d7871;stroke-width:1px;}#d16 .flowchart-link{stroke:#7d7871;fill:none;}#d16 .edgeLabel{background-color:#fbfaf9;text-align:center;}#d16 .edgeLabel p{background-color:#fbfaf9;}#d16 .edgeLabel rect{opacity:0.5;background-color:#fbfaf9;fill:#fbfaf9;}#d16 .labelBkg{background-color:rgba(251, 250, 249, 0.5);}#d16 .cluster rect{fill:#f4f1ee;stroke:#cfc9c2;stroke-width:1px;}#d16 .cluster text{fill:#0b0e11;}#d16 .cluster span{color:#0b0e11;}#d16 div.mermaidTooltip{position:absolute;text-align:center;max-width:200px;padding:2px;font-size:12px;background:#f4f1ee;border:1px solid hsl(30, 0%, 84.5098039216%);border-radius:2px;pointer-events:none;z-index:100;}#d16 .flowchartTitleText{text-anchor:middle;font-size:18px;fill:#33312e;}#d16 rect.text{fill:none;stroke-width:0;}#d16 .icon-shape,#d16 .image-shape{background-color:#fbfaf9;text-align:center;}#d16 .icon-shape p,#d16 .image-shape p{background-color:#fbfaf9;padding:2px;}#d16 .icon-shape .label rect,#d16 .image-shape .label rect{opacity:0.5;background-color:#fbfaf9;fill:#fbfaf9;}#d16 .label-icon{display:inline-block;height:1em;overflow:visible;vertical-align:-0.125em;}#d16 .node .label-icon path{fill:currentColor;stroke:revert;stroke-width:revert;}#d16 .node .neo-node{stroke:#9a948d;}#d16 [data-look="neo"].node rect,#d16 [data-look="neo"].cluster rect,#d16 [data-look="neo"].node polygon{stroke:url(#d16-gradient);filter:drop-shadow( 1px 2px 2px rgba(185,185,185,1));}#d16 [data-look="neo"].swimlane.cluster rect{filter:none;}#d16 [data-look="neo"].node path{stroke:url(#d16-gradient);stroke-width:1px;}#d16 [data-look="neo"].node .outer-path{filter:drop-shadow( 1px 2px 2px rgba(185,185,185,1));}#d16 [data-look="neo"].node .neo-line path{stroke:#9a948d;filter:none;}#d16 [data-look="neo"].node circle{stroke:url(#d16-gradient);filter:drop-shadow( 1px 2px 2px rgba(185,185,185,1));}#d16 [data-look="neo"].node circle .state-start{fill:#000000;}#d16 [data-look="neo"].icon-shape .icon{fill:url(#d16-gradient);filter:drop-shadow( 1px 2px 2px rgba(185,185,185,1));}#d16 [data-look="neo"].icon-shape .icon-neo path{stroke:url(#d16-gradient);filter:drop-shadow( 1px 2px 2px rgba(185,185,185,1));}#d16 :root{--mermaid-font-family:"trebuchet ms",verdana,arial,sans-serif;}#d16 .ops rect{fill:rgb(242, 169, 59)!important;stroke:rgb(201, 138, 44)!important;color:rgb(36, 26, 6)!important;}#d16 .ops polygon{fill:rgb(242, 169, 59)!important;stroke:rgb(201, 138, 44)!important;color:rgb(36, 26, 6)!important;}#d16 .ops ellipse{fill:rgb(242, 169, 59)!important;stroke:rgb(201, 138, 44)!important;color:rgb(36, 26, 6)!important;}#d16 .ops circle{fill:rgb(242, 169, 59)!important;stroke:rgb(201, 138, 44)!important;color:rgb(36, 26, 6)!important;}#d16 .ops path{fill:rgb(242, 169, 59)!important;stroke:rgb(201, 138, 44)!important;color:rgb(36, 26, 6)!important;}#d16 .ops tspan{fill:rgb(36, 26, 6)!important;}#d16 .core rect{fill:rgb(34, 37, 42)!important;stroke:rgb(34, 37, 42)!important;color:rgb(255, 255, 255)!important;}#d16 .core polygon{fill:rgb(34, 37, 42)!important;stroke:rgb(34, 37, 42)!important;color:rgb(255, 255, 255)!important;}#d16 .core ellipse{fill:rgb(34, 37, 42)!important;stroke:rgb(34, 37, 42)!important;color:rgb(255, 255, 255)!important;}#d16 .core circle{fill:rgb(34, 37, 42)!important;stroke:rgb(34, 37, 42)!important;color:rgb(255, 255, 255)!important;}#d16 .core path{fill:rgb(34, 37, 42)!important;stroke:rgb(34, 37, 42)!important;color:rgb(255, 255, 255)!important;}#d16 .core tspan{fill:rgb(255, 255, 255)!important;}#d16 .plain rect{fill:rgb(255, 255, 255)!important;stroke:rgb(154, 148, 141)!important;color:rgb(25, 27, 28)!important;}#d16 .plain polygon{fill:rgb(255, 255, 255)!important;stroke:rgb(154, 148, 141)!important;color:rgb(25, 27, 28)!important;}#d16 .plain ellipse{fill:rgb(255, 255, 255)!important;stroke:rgb(154, 148, 141)!important;color:rgb(25, 27, 28)!important;}#d16 .plain circle{fill:rgb(255, 255, 255)!important;stroke:rgb(154, 148, 141)!important;color:rgb(25, 27, 28)!important;}#d16 .plain path{fill:rgb(255, 255, 255)!important;stroke:rgb(154, 148, 141)!important;color:rgb(25, 27, 28)!important;}#d16 .plain tspan{fill:rgb(25, 27, 28)!important;}#d16 .fair rect{fill:rgb(182, 70, 152)!important;stroke:rgb(141, 51, 118)!important;color:rgb(255, 255, 255)!important;}#d16 .fair polygon{fill:rgb(182, 70, 152)!important;stroke:rgb(141, 51, 118)!important;color:rgb(255, 255, 255)!important;}#d16 .fair ellipse{fill:rgb(182, 70, 152)!important;stroke:rgb(141, 51, 118)!important;color:rgb(255, 255, 255)!important;}#d16 .fair circle{fill:rgb(182, 70, 152)!important;stroke:rgb(141, 51, 118)!important;color:rgb(255, 255, 255)!important;}#d16 .fair path{fill:rgb(182, 70, 152)!important;stroke:rgb(141, 51, 118)!important;color:rgb(255, 255, 255)!important;}#d16 .fair tspan{fill:rgb(255, 255, 255)!important;}</style><g><marker id="d16_flowchart-v2-pointEnd" class="marker flowchart-v2" viewBox="0 0 10 10" refX="5" refY="5" markerUnits="userSpaceOnUse" markerWidth="8" markerHeight="8" orient="auto"><path d="M 0 0 L 10 5 L 0 10 z" class="arrowMarkerPath" style="stroke-width: 1; stroke-dasharray: 1, 0;"></path></marker><marker id="d16_flowchart-v2-pointStart" class="marker flowchart-v2" viewBox="0 0 10 10" refX="4.5" refY="5" markerUnits="userSpaceOnUse" markerWidth="8" markerHeight="8" orient="auto"><path d="M 0 5 L 10 10 L 10 0 z" class="arrowMarkerPath" style="stroke-width: 1; stroke-dasharray: 1, 0;"></path></marker><marker id="d16_flowchart-v2-pointEnd-margin" class="marker flowchart-v2" viewBox="0 0 11.5 14" refX="11.5" refY="7" markerUnits="userSpaceOnUse" markerWidth="10.5" markerHeight="14" orient="auto"><path d="M 0 0 L 11.5 7 L 0 14 z" class="arrowMarkerPath" style="stroke-width: 0; stroke-dasharray: 1, 0;"></path></marker><marker id="d16_flowchart-v2-pointStart-margin" class="marker flowchart-v2" viewBox="0 0 11.5 14" refX="1" refY="7" markerUnits="userSpaceOnUse" markerWidth="11.5" markerHeight="14" orient="auto"><polygon points="0,7 11.5,14 11.5,0" class="arrowMarkerPath" style="stroke-width: 0; stroke-dasharray: 1, 0;"></polygon></marker><marker id="d16_flowchart-v2-circleEnd" class="marker flowchart-v2" viewBox="0 0 10 10" refX="11" refY="5" markerUnits="userSpaceOnUse" markerWidth="11" markerHeight="11" orient="auto"><circle cx="5" cy="5" r="5" class="arrowMarkerPath" style="stroke-width: 1; stroke-dasharray: 1, 0;"></circle></marker><marker id="d16_flowchart-v2-circleStart" class="marker flowchart-v2" viewBox="0 0 10 10" refX="-1" refY="5" markerUnits="userSpaceOnUse" markerWidth="11" markerHeight="11" orient="auto"><circle cx="5" cy="5" r="5" class="arrowMarkerPath" style="stroke-width: 1; stroke-dasharray: 1, 0;"></circle></marker><marker id="d16_flowchart-v2-circleEnd-margin" class="marker flowchart-v2" viewBox="0 0 10 10" refY="5" refX="12.25" markerUnits="userSpaceOnUse" markerWidth="14" markerHeight="14" orient="auto"><circle cx="5" cy="5" r="5" class="arrowMarkerPath" style="stroke-width: 0; stroke-dasharray: 1, 0;"></circle></marker><marker id="d16_flowchart-v2-circleStart-margin" class="marker flowchart-v2" viewBox="0 0 10 10" refX="-2" refY="5" markerUnits="userSpaceOnUse" markerWidth="14" markerHeight="14" orient="auto"><circle cx="5" cy="5" r="5" class="arrowMarkerPath" style="stroke-width: 0; stroke-dasharray: 1, 0;"></circle></marker><marker id="d16_flowchart-v2-crossEnd" class="marker cross flowchart-v2" viewBox="0 0 11 11" refX="12" refY="5.2" markerUnits="userSpaceOnUse" markerWidth="11" markerHeight="11" orient="auto"><path d="M 1,1 l 9,9 M 10,1 l -9,9" class="arrowMarkerPath" style="stroke-width: 2; stroke-dasharray: 1, 0;"></path></marker><marker id="d16_flowchart-v2-crossStart" class="marker cross flowchart-v2" viewBox="0 0 11 11" refX="-1" refY="5.2" markerUnits="userSpaceOnUse" markerWidth="11" markerHeight="11" orient="auto"><path d="M 1,1 l 9,9 M 10,1 l -9,9" class="arrowMarkerPath" style="stroke-width: 2; stroke-dasharray: 1, 0;"></path></marker><marker id="d16_flowchart-v2-crossEnd-margin" class="marker cross flowchart-v2" viewBox="0 0 15 15" refX="17.7" refY="7.5" markerUnits="userSpaceOnUse" markerWidth="12" markerHeight="12" orient="auto"><path d="M 1,1 L 14,14 M 1,14 L 14,1" class="arrowMarkerPath" style="stroke-width: 2.5;"></path></marker><marker id="d16_flowchart-v2-crossStart-margin" class="marker cross flowchart-v2" viewBox="0 0 15 15" refX="-3.5" refY="7.5" markerUnits="userSpaceOnUse" markerWidth="12" markerHeight="12" orient="auto"><path d="M 1,1 L 14,14 M 1,14 L 14,1" class="arrowMarkerPath" style="stroke-width: 2.5; stroke-dasharray: 1, 0;"></path></marker><g class="root"><g class="clusters"></g><g class="edgePaths"><path d="M236,111L240.17,111C244.33,111,252.67,111,260.42,111.07C268.17,111.14,275.33,111.28,278.92,111.35L282.5,111.42" id="d16-L_MAKE_PRINT_0" class=" edge-thickness-normal edge-pattern-solid edge-thickness-normal edge-pattern-solid flowchart-link" style=";" data-edge="true" data-et="edge" data-id="L_MAKE_PRINT_0" data-points="W3sieCI6MjM2LCJ5IjoxMTF9LHsieCI6MjYxLCJ5IjoxMTF9LHsieCI6Mjg2LjQ5OTk5OTk5OTk5OTk0LCJ5IjoxMTEuNX1d" data-look="classic" marker-end="url(#d16_flowchart-v2-pointEnd)"></path><path d="M479.74,111.5L483.82,111.42C487.9,111.33,496.07,111.17,503.74,111.15C511.4,111.14,518.57,111.28,522.15,111.35L525.74,111.42" id="d16-L_PRINT_SCAN_0" class=" edge-thickness-normal edge-pattern-solid edge-thickness-normal edge-pattern-solid flowchart-link" style=";" data-edge="true" data-et="edge" data-id="L_PRINT_SCAN_0" data-points="W3sieCI6NDc5LjczNjMzOTMyMzQzODQsInkiOjExMS41fSx7IngiOjUwNC4yMzYzNDMzODM3ODkwNiwieSI6MTExfSx7IngiOjUyOS43MzYzNDMzODM3ODc4LCJ5IjoxMTEuNX1d" data-look="classic" marker-end="url(#d16_flowchart-v2-pointEnd)"></path><path d="M677.5,111.5L681.58,111.42C685.67,111.33,693.83,111.17,701.42,111.08C709,111,716,111,719.5,111L723,111" id="d16-L_SCAN_HIT_0" class=" edge-thickness-normal edge-pattern-solid edge-thickness-normal edge-pattern-solid flowchart-link" style=";" data-edge="true" data-et="edge" data-id="L_SCAN_HIT_0" data-points="W3sieCI6Njc3LjQ5OTA5NzE2NzAwNzgsInkiOjExMS41fSx7IngiOjcwMS45OTkwOTk3MzE0NDUzLCJ5IjoxMTF9LHsieCI6NzI2Ljk5OTA5OTczMTQ0NTMsInkiOjExMX1d" data-look="classic" marker-end="url(#d16_flowchart-v2-pointEnd)"></path><path d="M856.91,111L861.07,111C865.24,111,873.57,111,881.24,111C888.91,111,895.91,111,899.41,111L902.91,111" id="d16-L_HIT_REC_0" class=" edge-thickness-normal edge-pattern-solid edge-thickness-normal edge-pattern-solid flowchart-link" style=";" data-edge="true" data-et="edge" data-id="L_HIT_REC_0" data-points="W3sieCI6ODU2LjkwNTM0OTczMTQ0NTMsInkiOjExMX0seyJ4Ijo4ODEuOTA1MzQ5NzMxNDQ1MywieSI6MTExfSx7IngiOjkwNi45MDUzNDk3MzE0NDUzLCJ5IjoxMTF9XQ==" data-look="classic" marker-end="url(#d16_flowchart-v2-pointEnd)"></path><path d="M1121.91,73.68L1126.07,72.23C1130.24,70.79,1138.57,67.89,1146.24,66.45C1153.91,65,1160.91,65,1164.41,65L1167.91,65" id="d16-L_REC_FWD_0" class=" edge-thickness-normal edge-pattern-solid edge-thickness-normal edge-pattern-solid flowchart-link" style=";" data-edge="true" data-et="edge" data-id="L_REC_FWD_0" data-points="W3sieCI6MTEyMS45MDUzNDk3MzE0NDUzLCJ5Ijo3My42NzkyNDUyODMwMTg4N30seyJ4IjoxMTQ2LjkwNTM0OTczMTQ0NTMsInkiOjY1fSx7IngiOjExNzEuOTA1MzQ5NzMxNDQ1MywieSI6NjV9XQ==" data-look="classic" marker-end="url(#d16_flowchart-v2-pointEnd)"></path><path d="M1431.91,65L1436.07,65C1440.24,65,1448.57,65,1456.24,65C1463.91,65,1470.91,65,1474.41,65L1477.91,65" id="d16-L_FWD_REG_0" class=" edge-thickness-normal edge-pattern-solid edge-thickness-normal edge-pattern-solid flowchart-link" style=";" data-edge="true" data-et="edge" data-id="L_FWD_REG_0" data-points="W3sieCI6MTQzMS45MDUzNDk3MzE0NDUzLCJ5Ijo2NX0seyJ4IjoxNDU2LjkwNTM0OTczMTQ0NTMsInkiOjY1fSx7IngiOjE0ODEuOTA1MzQ5NzMxNDQ1MywieSI6NjV9XQ==" data-look="classic" marker-end="url(#d16_flowchart-v2-pointEnd)"></path><path d="M1712.91,65L1717.07,65C1721.24,65,1729.57,65,1737.27,66.05C1744.96,67.09,1752.02,69.19,1755.54,70.23L1759.07,71.28" id="d16-L_REG_REP_0" class=" edge-thickness-normal edge-pattern-solid edge-thickness-normal edge-pattern-solid flowchart-link" style=";" data-edge="true" data-et="edge" data-id="L_REG_REP_0" data-points="W3sieCI6MTcxMi45MDUzNDk3MzE0NDUzLCJ5Ijo2NX0seyJ4IjoxNzM3LjkwNTM0OTczMTQ0NTMsInkiOjY1fSx7IngiOjE3NjIuOTA1MzQ5NzMxNDQ1MywieSI6NzIuNDE5MzU0ODM4NzA5Njh9XQ==" data-look="classic" marker-end="url(#d16_flowchart-v2-pointEnd)"></path><path d="M1121.91,148.32L1126.07,149.77C1130.24,151.21,1138.57,154.11,1168.57,155.55C1198.57,157,1250.24,157,1301.91,157C1353.57,157,1405.24,157,1454.49,157C1503.74,157,1550.57,157,1597.41,157C1644.24,157,1691.07,157,1718.02,155.95C1744.96,154.91,1752.02,152.81,1755.54,151.77L1759.07,150.72" id="d16-L_REC_REP_0" class=" edge-thickness-normal edge-pattern-solid edge-thickness-normal edge-pattern-solid flowchart-link" style=";" data-edge="true" data-et="edge" data-id="L_REC_REP_0" data-points="W3sieCI6MTEyMS45MDUzNDk3MzE0NDUzLCJ5IjoxNDguMzIwNzU0NzE2OTgxMTN9LHsieCI6MTE0Ni45MDUzNDk3MzE0NDUzLCJ5IjoxNTd9LHsieCI6MTMwMS45MDUzNDk3MzE0NDUzLCJ5IjoxNTd9LHsieCI6MTQ1Ni45MDUzNDk3MzE0NDUzLCJ5IjoxNTd9LHsieCI6MTU5Ny40MDUzNDk3MzE0NDUzLCJ5IjoxNTd9LHsieCI6MTczNy45MDUzNDk3MzE0NDUzLCJ5IjoxNTd9LHsieCI6MTc2Mi45MDUzNDk3MzE0NDUzLCJ5IjoxNDkuNTgwNjQ1MTYxMjkwM31d" data-look="classic" marker-end="url(#d16_flowchart-v2-pointEnd)"></path></g><g class="edgeLabels"><g class="edgeLabel"><g class="label" data-id="L_MAKE_PRINT_0" transform="translate(0, 0)"><text y="-10.1" text-anchor="middle"><tspan class="text-outer-tspan row" x="0" y="-0.1em" dy="1.1em" text-anchor="middle"></tspan></text></g></g><g><rect class="background" style="stroke: none"></rect></g><g class="edgeLabel"><g class="label" data-id="L_PRINT_SCAN_0" transform="translate(0, 0)"><text y="-10.1" text-anchor="middle"><tspan class="text-outer-tspan row" x="0" y="-0.1em" dy="1.1em" text-anchor="middle"></tspan></text></g></g><g><rect class="background" style="stroke: none"></rect></g><g class="edgeLabel"><g class="label" data-id="L_SCAN_HIT_0" transform="translate(0, 0)"><text y="-10.1" text-anchor="middle"><tspan class="text-outer-tspan row" x="0" y="-0.1em" dy="1.1em" text-anchor="middle"></tspan></text></g></g><g><rect class="background" style="stroke: none"></rect></g><g class="edgeLabel"><g class="label" data-id="L_HIT_REC_0" transform="translate(0, 0)"><text y="-10.1" text-anchor="middle"><tspan class="text-outer-tspan row" x="0" y="-0.1em" dy="1.1em" text-anchor="middle"></tspan></text></g></g><g><rect class="background" style="stroke: none"></rect></g><g class="edgeLabel"><g class="label" data-id="L_REC_FWD_0" transform="translate(0, 0)"><text y="-10.1" text-anchor="middle"><tspan class="text-outer-tspan row" x="0" y="-0.1em" dy="1.1em" text-anchor="middle"></tspan></text></g></g><g><rect class="background" style="stroke: none"></rect></g><g class="edgeLabel"><g class="label" data-id="L_FWD_REG_0" transform="translate(0, 0)"><text y="-10.1" text-anchor="middle"><tspan class="text-outer-tspan row" x="0" y="-0.1em" dy="1.1em" text-anchor="middle"></tspan></text></g></g><g><rect class="background" style="stroke: none"></rect></g><g class="edgeLabel"><g class="label" data-id="L_REG_REP_0" transform="translate(0, 0)"><text y="-10.1" text-anchor="middle"><tspan class="text-outer-tspan row" x="0" y="-0.1em" dy="1.1em" text-anchor="middle"></tspan></text></g></g><g><rect class="background" style="stroke: none"></rect></g><g class="edgeLabel"><g class="label" data-id="L_REC_REP_0" transform="translate(0, 0)"><text y="-10.1" text-anchor="middle"><tspan class="text-outer-tspan row" x="0" y="-0.1em" dy="1.1em" text-anchor="middle"></tspan></text></g></g><g><rect class="background" style="stroke: none"></rect></g></g><g class="nodes"><g class="node default ops " id="d16-flowchart-MAKE-0" data-look="classic" transform="translate(122, 111)"><rect class="basic label-container" style="fill:#f2a93b !important;stroke:#c98a2c !important" x="-114" y="-36" width="228" height="72"></rect><g class="label" style="color:#241a06 !important" transform="translate(-84, -21)"><rect></rect><foreignObject width="168" height="42"><div style="color: rgb(36, 26, 6) !important; display: table-cell; white-space: nowrap; line-height: 1.5; max-width: 200px; text-align: center;" xmlns="http://www.w3.org/1999/xhtml"><span style="color:#241a06 !important" class="nodeLabel "><p>Staff create a campaign<br/>in /admin/qr-campaigns</p></span></div></foreignObject></g></g><g class="node default ops " id="d16-flowchart-PRINT-1" data-look="classic" transform="translate(382.62, 111)"><g class="basic label-container outer-path"><path d="M-68.13 -28.5 C-40.8 -28.5, -13.47 -28.5, 68.13 -28.5 C68.13 -28.5, 68.13 -28.5, 68.13 -28.5 C68.62 -28.48, 69.11 -28.47, 69.96 -28.44 C70.54 -28.39, 71.12 -28.33, 71.78 -28.27 C72.21 -28.2, 72.64 -28.13, 73.58 -27.97 C74.06 -27.87, 74.54 -27.76, 75.36 -27.57 C75.98 -27.38, 76.6 -27.2, 77.11 -27.05 C77.72 -26.83, 78.32 -26.6, 78.83 -26.42 C79.35 -26.19, 79.88 -25.95, 80.5 -25.68 C80.87 -25.49, 81.23 -25.29, 82.12 -24.83 C82.55 -24.57, 82.98 -24.31, 83.68 -23.89 C84.05 -23.63, 84.42 -23.37, 85.18 -22.84 C85.7 -22.42, 86.23 -22, 86.61 -21.7 C87 -21.34, 87.4 -20.98, 87.96 -20.47 C88.43 -19.99, 88.9 -19.5, 89.23 -19.16 C89.52 -18.83, 89.8 -18.49, 90.42 -17.77 C90.71 -17.38, 91 -16.99, 91.51 -16.31 C91.86 -15.77, 92.2 -15.23, 92.5 -14.77 C92.84 -14.18, 93.18 -13.58, 93.4 -13.18 C93.7 -12.55, 94.01 -11.92, 94.19 -11.54 C94.34 -11.17, 94.49 -10.81, 94.88 -9.84 C95.02 -9.42, 95.16 -9, 95.45 -8.11 C95.58 -7.63, 95.71 -7.14, 95.92 -6.34 C96 -5.91, 96.09 -5.47, 96.27 -4.55 C96.35 -3.89, 96.44 -3.23, 96.5 -2.74 C96.53 -2.32, 96.55 -1.91, 96.62 -0.91 C96.62 -0.21, 96.62 0.5, 96.62 0.91 C96.57 1.63, 96.53 2.34, 96.5 2.74 C96.42 3.37, 96.34 4.01, 96.27 4.55 C96.19 4.93, 96.12 5.31, 95.92 6.34 C95.74 7.03, 95.56 7.72, 95.45 8.11 C95.31 8.55, 95.16 9, 94.88 9.84 C94.63 10.47, 94.38 11.09, 94.19 11.54 C93.97 12, 93.75 12.47, 93.4 13.18 C93.19 13.56, 92.97 13.94, 92.5 14.77 C92.27 15.13, 92.04 15.48, 91.51 16.31 C91.12 16.82, 90.74 17.34, 90.42 17.77 C90.05 18.2, 89.69 18.63, 89.23 19.16 C88.76 19.65, 88.29 20.13, 87.96 20.47 C87.47 20.92, 86.98 21.36, 86.61 21.7 C86.19 22.04, 85.77 22.37, 85.18 22.84 C84.85 23.07, 84.52 23.3, 83.68 23.89 C83.21 24.17, 82.74 24.46, 82.12 24.83 C81.48 25.17, 80.83 25.5, 80.5 25.68 C79.87 25.96, 79.23 26.24, 78.83 26.42 C78.27 26.62, 77.72 26.83, 77.11 27.05 C76.62 27.19, 76.13 27.34, 75.36 27.57 C74.67 27.72, 73.99 27.88, 73.58 27.97 C72.91 28.08, 72.23 28.19, 71.78 28.27 C71.16 28.33, 70.55 28.38, 69.96 28.44 C69.34 28.46, 68.72 28.48, 68.13 28.5 C68.13 28.5, 68.13 28.5, 68.13 28.5 C31.25 28.5, -5.64 28.5, -68.13 28.5 C-68.81 28.48, -69.48 28.46, -69.96 28.44 C-70.61 28.38, -71.26 28.32, -71.78 28.27 C-72.29 28.18, -72.8 28.1, -73.58 27.97 C-73.99 27.88, -74.39 27.79, -75.36 27.57 C-75.89 27.41, -76.43 27.25, -77.11 27.05 C-77.74 26.82, -78.37 26.58, -78.83 26.42 C-79.43 26.15, -80.04 25.88, -80.5 25.68 C-80.85 25.49, -81.2 25.31, -82.12 24.83 C-82.71 24.47, -83.31 24.11, -83.68 23.89 C-84.24 23.49, -84.8 23.1, -85.18 22.84 C-85.69 22.44, -86.2 22.03, -86.61 21.7 C-87.14 21.22, -87.67 20.73, -87.96 20.47 C-88.4 20.02, -88.84 19.56, -89.23 19.16 C-89.57 18.76, -89.9 18.37, -90.42 17.77 C-90.65 17.46, -90.88 17.15, -91.51 16.31 C-91.75 15.94, -91.99 15.57, -92.5 14.77 C-92.71 14.41, -92.92 14.04, -93.4 13.18 C-93.69 12.58, -93.98 11.98, -94.19 11.54 C-94.41 11.01, -94.62 10.48, -94.88 9.84 C-95.01 9.45, -95.14 9.06, -95.45 8.11 C-95.62 7.47, -95.79 6.84, -95.92 6.34 C-96.03 5.75, -96.15 5.16, -96.27 4.55 C-96.32 4.13, -96.38 3.71, -96.5 2.74 C-96.54 2.2, -96.57 1.65, -96.62 0.91 C-96.62 0.49, -96.62 0.07, -96.62 -0.91 C-96.59 -1.32, -96.57 -1.73, -96.5 -2.74 C-96.42 -3.38, -96.34 -4.02, -96.27 -4.55 C-96.14 -5.2, -96.01 -5.85, -95.92 -6.34 C-95.82 -6.73, -95.72 -7.11, -95.45 -8.11 C-95.25 -8.74, -95.04 -9.37, -94.88 -9.84 C-94.61 -10.51, -94.34 -11.17, -94.19 -11.54 C-94 -11.94, -93.8 -12.35, -93.4 -13.18 C-93.2 -13.55, -92.99 -13.91, -92.5 -14.77 C-92.14 -15.34, -91.77 -15.9, -91.51 -16.31 C-91.1 -16.85, -90.69 -17.4, -90.42 -17.77 C-90 -18.25, -89.59 -18.73, -89.23 -19.16 C-88.8 -19.61, -88.36 -20.06, -87.96 -20.47 C-87.66 -20.75, -87.35 -21.02, -86.61 -21.7 C-86.23 -22, -85.86 -22.3, -85.18 -22.84 C-84.79 -23.11, -84.39 -23.39, -83.68 -23.89 C-83.09 -24.24, -82.5 -24.6, -82.12 -24.83 C-81.48 -25.17, -80.84 -25.5, -80.5 -25.68 C-79.86 -25.96, -79.22 -26.24, -78.83 -26.42 C-78.43 -26.56, -78.04 -26.71, -77.11 -27.05 C-76.53 -27.22, -75.95 -27.39, -75.36 -27.57 C-74.99 -27.65, -74.62 -27.74, -73.58 -27.97 C-72.87 -28.09, -72.17 -28.2, -71.78 -28.27 C-71.35 -28.31, -70.93 -28.35, -69.96 -28.44 C-69.5 -28.46, -69.04 -28.47, -68.13 -28.5 C-68.13 -28.5, -68.13 -28.5, -68.13 -28.5" stroke="none" stroke-width="0" fill="#f2a93b" style="fill:#f2a93b !important;stroke:#c98a2c !important"></path><path d="M-68.13 -28.5 C-32.81 -28.5, 2.52 -28.5, 68.13 -28.5 M-68.13 -28.5 C-27.01 -28.5, 14.1 -28.5, 68.13 -28.5 M68.13 -28.5 C68.13 -28.5, 68.13 -28.5, 68.13 -28.5 M68.13 -28.5 C68.13 -28.5, 68.13 -28.5, 68.13 -28.5 M68.13 -28.5 C68.63 -28.48, 69.13 -28.47, 69.96 -28.44 M68.13 -28.5 C68.61 -28.48, 69.1 -28.47, 69.96 -28.44 M69.96 -28.44 C70.61 -28.38, 71.26 -28.32, 71.78 -28.27 M69.96 -28.44 C70.42 -28.4, 70.88 -28.35, 71.78 -28.27 M71.78 -28.27 C72.14 -28.21, 72.51 -28.15, 73.58 -27.97 M71.78 -28.27 C72.27 -28.19, 72.77 -28.11, 73.58 -27.97 M73.58 -27.97 C74.25 -27.82, 74.91 -27.67, 75.36 -27.57 M73.58 -27.97 C74.06 -27.87, 74.54 -27.76, 75.36 -27.57 M75.36 -27.57 C75.9 -27.41, 76.43 -27.25, 77.11 -27.05 M75.36 -27.57 C75.79 -27.44, 76.21 -27.32, 77.11 -27.05 M77.11 -27.05 C77.5 -26.91, 77.89 -26.76, 78.83 -26.42 M77.11 -27.05 C77.69 -26.84, 78.27 -26.62, 78.83 -26.42 M78.83 -26.42 C79.19 -26.26, 79.55 -26.1, 80.5 -25.68 M78.83 -26.42 C79.31 -26.2, 79.8 -25.99, 80.5 -25.68 M80.5 -25.68 C80.82 -25.51, 81.15 -25.34, 82.12 -24.83 M80.5 -25.68 C80.84 -25.5, 81.18 -25.32, 82.12 -24.83 M82.12 -24.83 C82.67 -24.5, 83.23 -24.16, 83.68 -23.89 M82.12 -24.83 C82.49 -24.61, 82.87 -24.38, 83.68 -23.89 M83.68 -23.89 C84.23 -23.51, 84.77 -23.12, 85.18 -22.84 M83.68 -23.89 C84.22 -23.51, 84.76 -23.13, 85.18 -22.84 M85.18 -22.84 C85.54 -22.55, 85.9 -22.26, 86.61 -21.7 M85.18 -22.84 C85.57 -22.53, 85.96 -22.22, 86.61 -21.7 M86.61 -21.7 C86.95 -21.39, 87.28 -21.09, 87.96 -20.47 M86.61 -21.7 C86.97 -21.37, 87.33 -21.05, 87.96 -20.47 M87.96 -20.47 C88.3 -20.12, 88.64 -19.77, 89.23 -19.16 M87.96 -20.47 C88.44 -19.98, 88.92 -19.48, 89.23 -19.16 M89.23 -19.16 C89.52 -18.83, 89.8 -18.49, 90.42 -17.77 M89.23 -19.16 C89.69 -18.62, 90.15 -18.09, 90.42 -17.77 M90.42 -17.77 C90.7 -17.39, 90.99 -17, 91.51 -16.31 M90.42 -17.77 C90.71 -17.38, 91 -16.98, 91.51 -16.31 M91.51 -16.31 C91.86 -15.77, 92.21 -15.23, 92.5 -14.77 M91.51 -16.31 C91.89 -15.71, 92.28 -15.12, 92.5 -14.77 M92.5 -14.77 C92.84 -14.17, 93.18 -13.58, 93.4 -13.18 M92.5 -14.77 C92.77 -14.31, 93.03 -13.85, 93.4 -13.18 M93.4 -13.18 C93.56 -12.84, 93.73 -12.5, 94.19 -11.54 M93.4 -13.18 C93.65 -12.67, 93.9 -12.15, 94.19 -11.54 M94.19 -11.54 C94.42 -10.99, 94.64 -10.44, 94.88 -9.84 M94.19 -11.54 C94.42 -10.98, 94.65 -10.42, 94.88 -9.84 M94.88 -9.84 C95 -9.49, 95.12 -9.13, 95.45 -8.11 M94.88 -9.84 C95.06 -9.29, 95.25 -8.73, 95.45 -8.11 M95.45 -8.11 C95.6 -7.54, 95.75 -6.96, 95.92 -6.34 M95.45 -8.11 C95.58 -7.64, 95.7 -7.16, 95.92 -6.34 M95.92 -6.34 C96.01 -5.88, 96.1 -5.41, 96.27 -4.55 M95.92 -6.34 C96.05 -5.67, 96.18 -5, 96.27 -4.55 M96.27 -4.55 C96.34 -3.95, 96.42 -3.35, 96.5 -2.74 M96.27 -4.55 C96.35 -3.93, 96.43 -3.31, 96.5 -2.74 M96.5 -2.74 C96.53 -2.33, 96.55 -1.92, 96.62 -0.91 M96.5 -2.74 C96.54 -2.2, 96.57 -1.66, 96.62 -0.91 M96.62 -0.91 C96.62 -0.53, 96.62 -0.16, 96.62 0.91 M96.62 -0.91 C96.62 -0.37, 96.62 0.18, 96.62 0.91 M96.62 0.91 C96.59 1.4, 96.56 1.89, 96.5 2.74 M96.62 0.91 C96.58 1.48, 96.54 2.05, 96.5 2.74 M96.5 2.74 C96.42 3.37, 96.34 4, 96.27 4.55 M96.5 2.74 C96.41 3.41, 96.33 4.08, 96.27 4.55 M96.27 4.55 C96.13 5.23, 96 5.92, 95.92 6.34 M96.27 4.55 C96.15 5.16, 96.03 5.76, 95.92 6.34 M95.92 6.34 C95.8 6.79, 95.68 7.24, 95.45 8.11 M95.92 6.34 C95.78 6.89, 95.63 7.43, 95.45 8.11 M95.45 8.11 C95.27 8.67, 95.09 9.22, 94.88 9.84 M95.45 8.11 C95.34 8.47, 95.22 8.82, 94.88 9.84 M94.88 9.84 C94.7 10.29, 94.51 10.75, 94.19 11.54 M94.88 9.84 C94.64 10.44, 94.39 11.04, 94.19 11.54 M94.19 11.54 C93.92 12.11, 93.64 12.68, 93.4 13.18 M94.19 11.54 C93.96 12.01, 93.73 12.49, 93.4 13.18 M93.4 13.18 C93.21 13.53, 93.01 13.87, 92.5 14.77 M93.4 13.18 C93.09 13.73, 92.78 14.28, 92.5 14.77 M92.5 14.77 C92.11 15.39, 91.71 16, 91.51 16.31 M92.5 14.77 C92.26 15.15, 92.02 15.53, 91.51 16.31 M91.51 16.31 C91.11 16.84, 90.71 17.38, 90.42 17.77 M91.51 16.31 C91.24 16.66, 90.98 17.01, 90.42 17.77 M90.42 17.77 C89.95 18.31, 89.49 18.85, 89.23 19.16 M90.42 17.77 C90.09 18.15, 89.76 18.54, 89.23 19.16 M89.23 19.16 C88.91 19.49, 88.59 19.82, 87.96 20.47 M89.23 19.16 C88.94 19.46, 88.65 19.76, 87.96 20.47 M87.96 20.47 C87.57 20.83, 87.18 21.18, 86.61 21.7 M87.96 20.47 C87.42 20.96, 86.88 21.45, 86.61 21.7 M86.61 21.7 C86.23 22, 85.86 22.3, 85.18 22.84 M86.61 21.7 C86.06 22.14, 85.52 22.57, 85.18 22.84 M85.18 22.84 C84.74 23.15, 84.3 23.46, 83.68 23.89 M85.18 22.84 C84.83 23.08, 84.49 23.32, 83.68 23.89 M83.68 23.89 C83.22 24.17, 82.76 24.45, 82.12 24.83 M83.68 23.89 C83.29 24.12, 82.89 24.36, 82.12 24.83 M82.12 24.83 C81.47 25.17, 80.83 25.5, 80.5 25.68 M82.12 24.83 C81.65 25.07, 81.19 25.32, 80.5 25.68 M80.5 25.68 C79.86 25.96, 79.22 26.24, 78.83 26.42 M80.5 25.68 C80.08 25.86, 79.66 26.05, 78.83 26.42 M78.83 26.42 C78.36 26.59, 77.89 26.76, 77.11 27.05 M78.83 26.42 C78.33 26.6, 77.83 26.79, 77.11 27.05 M77.11 27.05 C76.52 27.22, 75.92 27.4, 75.36 27.57 M77.11 27.05 C76.7 27.17, 76.28 27.3, 75.36 27.57 M75.36 27.57 C74.67 27.72, 73.99 27.88, 73.58 27.97 M75.36 27.57 C74.72 27.71, 74.08 27.86, 73.58 27.97 M73.58 27.97 C73 28.07, 72.42 28.16, 71.78 28.27 M73.58 27.97 C73.06 28.06, 72.55 28.14, 71.78 28.27 M71.78 28.27 C71.26 28.32, 70.73 28.37, 69.96 28.44 M71.78 28.27 C71.21 28.32, 70.64 28.38, 69.96 28.44 M69.96 28.44 C69.54 28.45, 69.12 28.47, 68.13 28.5 M69.96 28.44 C69.42 28.46, 68.88 28.48, 68.13 28.5 M68.13 28.5 C68.13 28.5, 68.13 28.5, 68.13 28.5 M68.13 28.5 C68.13 28.5, 68.13 28.5, 68.13 28.5 M68.13 28.5 C13.64 28.5, -40.84 28.5, -68.13 28.5 M68.13 28.5 C19.44 28.5, -29.25 28.5, -68.13 28.5 M-68.13 28.5 C-68.71 28.48, -69.29 28.46, -69.96 28.44 M-68.13 28.5 C-68.76 28.48, -69.39 28.46, -69.96 28.44 M-69.96 28.44 C-70.4 28.4, -70.85 28.36, -71.78 28.27 M-69.96 28.44 C-70.39 28.4, -70.82 28.36, -71.78 28.27 M-71.78 28.27 C-72.17 28.2, -72.57 28.14, -73.58 27.97 M-71.78 28.27 C-72.46 28.16, -73.14 28.05, -73.58 27.97 M-73.58 27.97 C-74.22 27.83, -74.85 27.68, -75.36 27.57 M-73.58 27.97 C-74.02 27.87, -74.46 27.77, -75.36 27.57 M-75.36 27.57 C-75.74 27.46, -76.12 27.34, -77.11 27.05 M-75.36 27.57 C-76.06 27.36, -76.76 27.15, -77.11 27.05 M-77.11 27.05 C-77.8 26.8, -78.48 26.54, -78.83 26.42 M-77.11 27.05 C-77.68 26.84, -78.25 26.63, -78.83 26.42 M-78.83 26.42 C-79.29 26.21, -79.76 26, -80.5 25.68 M-78.83 26.42 C-79.44 26.15, -80.05 25.88, -80.5 25.68 M-80.5 25.68 C-80.95 25.44, -81.4 25.21, -82.12 24.83 M-80.5 25.68 C-80.86 25.49, -81.22 25.3, -82.12 24.83 M-82.12 24.83 C-82.66 24.51, -83.2 24.18, -83.68 23.89 M-82.12 24.83 C-82.57 24.56, -83.02 24.28, -83.68 23.89 M-83.68 23.89 C-84.11 23.59, -84.53 23.29, -85.18 22.84 M-83.68 23.89 C-84.23 23.5, -84.78 23.12, -85.18 22.84 M-85.18 22.84 C-85.61 22.49, -86.05 22.15, -86.61 21.7 M-85.18 22.84 C-85.69 22.44, -86.2 22.03, -86.61 21.7 M-86.61 21.7 C-87.12 21.24, -87.63 20.77, -87.96 20.47 M-86.61 21.7 C-87.14 21.21, -87.68 20.73, -87.96 20.47 M-87.96 20.47 C-88.27 20.15, -88.59 19.83, -89.23 19.16 M-87.96 20.47 C-88.28 20.14, -88.6 19.81, -89.23 19.16 M-89.23 19.16 C-89.51 18.83, -89.79 18.5, -90.42 17.77 M-89.23 19.16 C-89.68 18.63, -90.13 18.11, -90.42 17.77 M-90.42 17.77 C-90.74 17.34, -91.06 16.91, -91.51 16.31 M-90.42 17.77 C-90.83 17.21, -91.25 16.65, -91.51 16.31 M-91.51 16.31 C-91.8 15.86, -92.08 15.42, -92.5 14.77 M-91.51 16.31 C-91.72 15.97, -91.94 15.64, -92.5 14.77 M-92.5 14.77 C-92.82 14.2, -93.15 13.64, -93.4 13.18 M-92.5 14.77 C-92.82 14.22, -93.13 13.66, -93.4 13.18 M-93.4 13.18 C-93.58 12.81, -93.76 12.44, -94.19 11.54 M-93.4 13.18 C-93.57 12.83, -93.74 12.49, -94.19 11.54 M-94.19 11.54 C-94.45 10.9, -94.71 10.26, -94.88 9.84 M-94.19 11.54 C-94.38 11.08, -94.56 10.63, -94.88 9.84 M-94.88 9.84 C-95 9.47, -95.13 9.09, -95.45 8.11 M-94.88 9.84 C-95.08 9.22, -95.29 8.6, -95.45 8.11 M-95.45 8.11 C-95.59 7.59, -95.73 7.06, -95.92 6.34 M-95.45 8.11 C-95.61 7.51, -95.77 6.91, -95.92 6.34 M-95.92 6.34 C-96.02 5.8, -96.13 5.27, -96.27 4.55 M-95.92 6.34 C-95.99 5.97, -96.06 5.6, -96.27 4.55 M-96.27 4.55 C-96.34 4.02, -96.4 3.49, -96.5 2.74 M-96.27 4.55 C-96.31 4.18, -96.36 3.82, -96.5 2.74 M-96.5 2.74 C-96.53 2.24, -96.56 1.74, -96.62 0.91 M-96.5 2.74 C-96.53 2.32, -96.55 1.91, -96.62 0.91 M-96.62 0.91 C-96.62 0.5, -96.62 0.08, -96.62 -0.91 M-96.62 0.91 C-96.62 0.29, -96.62 -0.33, -96.62 -0.91 M-96.62 -0.91 C-96.57 -1.59, -96.53 -2.27, -96.5 -2.74 M-96.62 -0.91 C-96.58 -1.44, -96.55 -1.97, -96.5 -2.74 M-96.5 -2.74 C-96.43 -3.25, -96.37 -3.77, -96.27 -4.55 M-96.5 -2.74 C-96.43 -3.26, -96.37 -3.78, -96.27 -4.55 M-96.27 -4.55 C-96.14 -5.2, -96.01 -5.85, -95.92 -6.34 M-96.27 -4.55 C-96.13 -5.26, -95.99 -5.97, -95.92 -6.34 M-95.92 -6.34 C-95.76 -6.93, -95.61 -7.51, -95.45 -8.11 M-95.92 -6.34 C-95.79 -6.82, -95.67 -7.3, -95.45 -8.11 M-95.45 -8.11 C-95.3 -8.56, -95.15 -9.01, -94.88 -9.84 M-95.45 -8.11 C-95.27 -8.67, -95.08 -9.24, -94.88 -9.84 M-94.88 -9.84 C-94.65 -10.41, -94.42 -10.97, -94.19 -11.54 M-94.88 -9.84 C-94.65 -10.41, -94.42 -10.98, -94.19 -11.54 M-94.19 -11.54 C-93.99 -11.95, -93.79 -12.37, -93.4 -13.18 M-94.19 -11.54 C-93.96 -12.01, -93.74 -12.49, -93.4 -13.18 M-93.4 -13.18 C-93.13 -13.66, -92.86 -14.14, -92.5 -14.77 M-93.4 -13.18 C-93.09 -13.74, -92.78 -14.29, -92.5 -14.77 M-92.5 -14.77 C-92.13 -15.35, -91.76 -15.92, -91.51 -16.31 M-92.5 -14.77 C-92.21 -15.22, -91.92 -15.67, -91.51 -16.31 M-91.51 -16.31 C-91.17 -16.75, -90.84 -17.2, -90.42 -17.77 M-91.51 -16.31 C-91.08 -16.88, -90.65 -17.46, -90.42 -17.77 M-90.42 -17.77 C-90 -18.26, -89.59 -18.74, -89.23 -19.16 M-90.42 -17.77 C-89.94 -18.32, -89.47 -18.88, -89.23 -19.16 M-89.23 -19.16 C-88.89 -19.51, -88.55 -19.86, -87.96 -20.47 M-89.23 -19.16 C-88.93 -19.47, -88.62 -19.79, -87.96 -20.47 M-87.96 -20.47 C-87.44 -20.94, -86.92 -21.42, -86.61 -21.7 M-87.96 -20.47 C-87.68 -20.73, -87.4 -20.98, -86.61 -21.7 M-86.61 -21.7 C-86.2 -22.03, -85.79 -22.36, -85.18 -22.84 M-86.61 -21.7 C-86.05 -22.15, -85.49 -22.59, -85.18 -22.84 M-85.18 -22.84 C-84.86 -23.06, -84.55 -23.28, -83.68 -23.89 M-85.18 -22.84 C-84.67 -23.2, -84.16 -23.55, -83.68 -23.89 M-83.68 -23.89 C-83.34 -24.09, -83 -24.3, -82.12 -24.83 M-83.68 -23.89 C-83.2 -24.17, -82.73 -24.46, -82.12 -24.83 M-82.12 -24.83 C-81.69 -25.06, -81.27 -25.28, -80.5 -25.68 M-82.12 -24.83 C-81.66 -25.07, -81.2 -25.31, -80.5 -25.68 M-80.5 -25.68 C-80.01 -25.89, -79.52 -26.11, -78.83 -26.42 M-80.5 -25.68 C-79.85 -25.97, -79.2 -26.25, -78.83 -26.42 M-78.83 -26.42 C-78.2 -26.65, -77.58 -26.88, -77.11 -27.05 M-78.83 -26.42 C-78.42 -26.57, -78.01 -26.72, -77.11 -27.05 M-77.11 -27.05 C-76.67 -27.18, -76.22 -27.31, -75.36 -27.57 M-77.11 -27.05 C-76.47 -27.24, -75.83 -27.43, -75.36 -27.57 M-75.36 -27.57 C-74.66 -27.73, -73.97 -27.89, -73.58 -27.97 M-75.36 -27.57 C-74.89 -27.68, -74.41 -27.79, -73.58 -27.97 M-73.58 -27.97 C-73.19 -28.04, -72.81 -28.1, -71.78 -28.27 M-73.58 -27.97 C-73.13 -28.05, -72.67 -28.12, -71.78 -28.27 M-71.78 -28.27 C-71.24 -28.32, -70.7 -28.37, -69.96 -28.44 M-71.78 -28.27 C-71.2 -28.32, -70.62 -28.38, -69.96 -28.44 M-69.96 -28.44 C-69.41 -28.46, -68.86 -28.48, -68.13 -28.5 M-69.96 -28.44 C-69.57 -28.45, -69.19 -28.47, -68.13 -28.5 M-68.13 -28.5 C-68.13 -28.5, -68.13 -28.5, -68.13 -28.5 M-68.13 -28.5 C-68.13 -28.5, -68.13 -28.5, -68.13 -28.5" stroke="#c98a2c" stroke-width="1.3" fill="none" stroke-dasharray="0 0" style="fill:#f2a93b !important;stroke:#c98a2c !important"></path></g><g class="label" style="color:#241a06 !important" transform="translate(-82.01, -21)"><rect></rect><foreignObject width="164.015625" height="42"><div style="color: rgb(36, 26, 6) !important; display: table-cell; white-space: nowrap; line-height: 1.5; max-width: 200px; text-align: center;" xmlns="http://www.w3.org/1999/xhtml"><span style="color:#241a06 !important" class="nodeLabel "><p>QR printed on a poster,<br/>banner or handout</p></span></div></foreignObject></g></g><g class="node default plain " id="d16-flowchart-SCAN-2" data-look="classic" transform="translate(603.12, 111)"><g class="basic label-container outer-path"><path d="M-55.89 -18 C-18.21 -18, 19.46 -18, 55.89 -18 C55.89 -18, 55.89 -18, 55.89 -18 C56.32 -17.99, 56.76 -17.97, 57.04 -17.96 C57.45 -17.92, 57.86 -17.88, 58.19 -17.85 C58.48 -17.81, 58.77 -17.76, 59.33 -17.67 C59.73 -17.58, 60.12 -17.49, 60.46 -17.41 C60.72 -17.33, 60.99 -17.25, 61.56 -17.08 C61.9 -16.96, 62.23 -16.84, 62.65 -16.68 C62.95 -16.55, 63.25 -16.42, 63.7 -16.22 C63.92 -16.1, 64.14 -15.99, 64.72 -15.68 C65.11 -15.45, 65.5 -15.21, 65.71 -15.09 C66 -14.89, 66.28 -14.69, 66.66 -14.43 C66.88 -14.25, 67.1 -14.07, 67.56 -13.71 C67.81 -13.48, 68.06 -13.25, 68.41 -12.93 C68.73 -12.6, 69.05 -12.28, 69.22 -12.1 C69.38 -11.91, 69.55 -11.71, 69.96 -11.22 C70.15 -10.97, 70.34 -10.72, 70.65 -10.3 C70.86 -9.98, 71.07 -9.67, 71.28 -9.33 C71.4 -9.12, 71.52 -8.92, 71.85 -8.33 C72.03 -7.94, 72.22 -7.56, 72.35 -7.29 C72.47 -6.99, 72.59 -6.69, 72.78 -6.22 C72.93 -5.79, 73.07 -5.36, 73.15 -5.12 C73.26 -4.69, 73.37 -4.27, 73.44 -4.01 C73.5 -3.67, 73.57 -3.34, 73.66 -2.87 C73.69 -2.63, 73.72 -2.39, 73.81 -1.73 C73.83 -1.34, 73.86 -0.94, 73.88 -0.58 C73.88 -0.14, 73.88 0.3, 73.88 0.58 C73.86 0.84, 73.85 1.11, 73.81 1.73 C73.78 1.98, 73.74 2.23, 73.66 2.87 C73.61 3.14, 73.56 3.4, 73.44 4.01 C73.36 4.31, 73.28 4.62, 73.15 5.12 C73.07 5.36, 72.99 5.59, 72.78 6.22 C72.62 6.61, 72.47 7, 72.35 7.29 C72.24 7.51, 72.14 7.73, 71.85 8.33 C71.72 8.55, 71.59 8.78, 71.28 9.33 C71.11 9.6, 70.93 9.87, 70.65 10.3 C70.44 10.59, 70.22 10.88, 69.96 11.22 C69.76 11.46, 69.56 11.69, 69.22 12.1 C69.03 12.3, 68.84 12.49, 68.41 12.93 C68.15 13.17, 67.88 13.42, 67.56 13.71 C67.27 13.94, 66.98 14.17, 66.66 14.43 C66.3 14.68, 65.93 14.93, 65.71 15.09 C65.36 15.3, 65.01 15.51, 64.72 15.68 C64.38 15.86, 64.04 16.04, 63.7 16.22 C63.48 16.31, 63.27 16.41, 62.65 16.68 C62.3 16.81, 61.96 16.94, 61.56 17.08 C61.22 17.18, 60.88 17.29, 60.46 17.41 C60.05 17.5, 59.65 17.59, 59.33 17.67 C58.91 17.74, 58.49 17.8, 58.19 17.85 C57.77 17.89, 57.35 17.93, 57.04 17.96 C56.73 17.97, 56.41 17.98, 55.89 18 C55.89 18, 55.89 18, 55.89 18 C16.11 18, -23.68 18, -55.89 18 C-56.21 17.99, -56.53 17.98, -57.04 17.96 C-57.48 17.92, -57.92 17.88, -58.19 17.85 C-58.62 17.78, -59.06 17.71, -59.33 17.67 C-59.58 17.61, -59.82 17.56, -60.46 17.41 C-60.81 17.31, -61.16 17.2, -61.56 17.08 C-61.99 16.93, -62.42 16.77, -62.65 16.68 C-62.97 16.54, -63.29 16.4, -63.7 16.22 C-63.95 16.09, -64.2 15.96, -64.72 15.68 C-65.07 15.47, -65.42 15.26, -65.71 15.09 C-66.04 14.85, -66.38 14.62, -66.66 14.43 C-66.86 14.27, -67.05 14.11, -67.56 13.71 C-67.8 13.49, -68.03 13.27, -68.41 12.93 C-68.65 12.68, -68.89 12.43, -69.22 12.1 C-69.41 11.87, -69.61 11.64, -69.96 11.22 C-70.14 10.99, -70.31 10.76, -70.65 10.3 C-70.84 10.02, -71.02 9.73, -71.28 9.33 C-71.46 9.01, -71.64 8.69, -71.85 8.33 C-71.98 8.06, -72.1 7.8, -72.35 7.29 C-72.47 7, -72.59 6.7, -72.78 6.22 C-72.87 5.96, -72.95 5.71, -73.15 5.12 C-73.24 4.77, -73.33 4.42, -73.44 4.01 C-73.51 3.63, -73.59 3.25, -73.66 2.87 C-73.7 2.59, -73.73 2.31, -73.81 1.73 C-73.83 1.35, -73.86 0.98, -73.88 0.58 C-73.88 0.23, -73.88 -0.11, -73.88 -0.58 C-73.86 -0.88, -73.84 -1.18, -73.81 -1.73 C-73.75 -2.14, -73.7 -2.55, -73.66 -2.87 C-73.58 -3.28, -73.5 -3.68, -73.44 -4.01 C-73.33 -4.41, -73.23 -4.82, -73.15 -5.12 C-73.06 -5.39, -72.97 -5.67, -72.78 -6.22 C-72.68 -6.46, -72.58 -6.71, -72.35 -7.29 C-72.21 -7.59, -72.06 -7.89, -71.85 -8.33 C-71.66 -8.67, -71.47 -9.01, -71.28 -9.33 C-71.07 -9.65, -70.87 -9.97, -70.65 -10.3 C-70.4 -10.64, -70.14 -10.98, -69.96 -11.22 C-69.79 -11.43, -69.62 -11.63, -69.22 -12.1 C-69.01 -12.31, -68.81 -12.52, -68.41 -12.93 C-68.15 -13.17, -67.89 -13.4, -67.56 -13.71 C-67.29 -13.92, -67.02 -14.14, -66.66 -14.43 C-66.41 -14.59, -66.17 -14.76, -65.71 -15.09 C-65.49 -15.22, -65.27 -15.35, -64.72 -15.68 C-64.41 -15.85, -64.1 -16.01, -63.7 -16.22 C-63.31 -16.39, -62.91 -16.57, -62.65 -16.68 C-62.41 -16.77, -62.17 -16.86, -61.56 -17.08 C-61.14 -17.21, -60.71 -17.34, -60.46 -17.41 C-60.13 -17.48, -59.81 -17.56, -59.33 -17.67 C-58.99 -17.72, -58.64 -17.78, -58.19 -17.85 C-57.86 -17.88, -57.53 -17.92, -57.04 -17.96 C-56.6 -17.98, -56.16 -17.99, -55.89 -18 C-55.89 -18, -55.89 -18, -55.89 -18" stroke="none" stroke-width="0" fill="#fff" style="fill:#fff !important;stroke:#9a948d !important"></path><path d="M-55.89 -18 C-25.09 -18, 5.71 -18, 55.89 -18 M-55.89 -18 C-31.6 -18, -7.31 -18, 55.89 -18 M55.89 -18 C55.89 -18, 55.89 -18, 55.89 -18 M55.89 -18 C55.89 -18, 55.89 -18, 55.89 -18 M55.89 -18 C56.33 -17.99, 56.76 -17.97, 57.04 -17.96 M55.89 -18 C56.23 -17.99, 56.58 -17.98, 57.04 -17.96 M57.04 -17.96 C57.48 -17.92, 57.92 -17.88, 58.19 -17.85 M57.04 -17.96 C57.33 -17.94, 57.62 -17.91, 58.19 -17.85 M58.19 -17.85 C58.64 -17.78, 59.09 -17.71, 59.33 -17.67 M58.19 -17.85 C58.56 -17.79, 58.93 -17.73, 59.33 -17.67 M59.33 -17.67 C59.67 -17.59, 60.02 -17.51, 60.46 -17.41 M59.33 -17.67 C59.65 -17.6, 59.96 -17.52, 60.46 -17.41 M60.46 -17.41 C60.84 -17.3, 61.23 -17.18, 61.56 -17.08 M60.46 -17.41 C60.68 -17.34, 60.91 -17.28, 61.56 -17.08 M61.56 -17.08 C61.96 -16.94, 62.36 -16.79, 62.65 -16.68 M61.56 -17.08 C61.91 -16.96, 62.25 -16.83, 62.65 -16.68 M62.65 -16.68 C63.05 -16.51, 63.45 -16.33, 63.7 -16.22 M62.65 -16.68 C63.07 -16.5, 63.49 -16.31, 63.7 -16.22 M63.7 -16.22 C63.99 -16.07, 64.27 -15.92, 64.72 -15.68 M63.7 -16.22 C63.92 -16.1, 64.14 -15.99, 64.72 -15.68 M64.72 -15.68 C65.07 -15.47, 65.42 -15.26, 65.71 -15.09 M64.72 -15.68 C65.03 -15.5, 65.35 -15.31, 65.71 -15.09 M65.71 -15.09 C65.97 -14.9, 66.23 -14.72, 66.66 -14.43 M65.71 -15.09 C66.08 -14.83, 66.44 -14.57, 66.66 -14.43 M66.66 -14.43 C66.88 -14.25, 67.1 -14.07, 67.56 -13.71 M66.66 -14.43 C66.96 -14.18, 67.27 -13.94, 67.56 -13.71 M67.56 -13.71 C67.85 -13.44, 68.13 -13.18, 68.41 -12.93 M67.56 -13.71 C67.75 -13.53, 67.94 -13.36, 68.41 -12.93 M68.41 -12.93 C68.73 -12.6, 69.05 -12.28, 69.22 -12.1 M68.41 -12.93 C68.68 -12.65, 68.96 -12.37, 69.22 -12.1 M69.22 -12.1 C69.49 -11.78, 69.76 -11.46, 69.96 -11.22 M69.22 -12.1 C69.5 -11.76, 69.79 -11.43, 69.96 -11.22 M69.96 -11.22 C70.12 -11.01, 70.29 -10.79, 70.65 -10.3 M69.96 -11.22 C70.16 -10.96, 70.35 -10.7, 70.65 -10.3 M70.65 -10.3 C70.89 -9.93, 71.13 -9.57, 71.28 -9.33 M70.65 -10.3 C70.85 -9.99, 71.05 -9.68, 71.28 -9.33 M71.28 -9.33 C71.45 -9.04, 71.61 -8.76, 71.85 -8.33 M71.28 -9.33 C71.42 -9.1, 71.55 -8.86, 71.85 -8.33 M71.85 -8.33 C72.03 -7.96, 72.2 -7.59, 72.35 -7.29 M71.85 -8.33 C72.01 -7.99, 72.17 -7.66, 72.35 -7.29 M72.35 -7.29 C72.48 -6.95, 72.62 -6.62, 72.78 -6.22 M72.35 -7.29 C72.48 -6.97, 72.6 -6.66, 72.78 -6.22 M72.78 -6.22 C72.88 -5.93, 72.97 -5.65, 73.15 -5.12 M72.78 -6.22 C72.91 -5.83, 73.04 -5.44, 73.15 -5.12 M73.15 -5.12 C73.25 -4.71, 73.36 -4.31, 73.44 -4.01 M73.15 -5.12 C73.24 -4.77, 73.33 -4.41, 73.44 -4.01 M73.44 -4.01 C73.52 -3.6, 73.6 -3.2, 73.66 -2.87 M73.44 -4.01 C73.52 -3.57, 73.61 -3.14, 73.66 -2.87 M73.66 -2.87 C73.71 -2.45, 73.77 -2.03, 73.81 -1.73 M73.66 -2.87 C73.7 -2.55, 73.74 -2.23, 73.81 -1.73 M73.81 -1.73 C73.83 -1.32, 73.86 -0.91, 73.88 -0.58 M73.81 -1.73 C73.83 -1.41, 73.85 -1.1, 73.88 -0.58 M73.88 -0.58 C73.88 -0.23, 73.88 0.12, 73.88 0.58 M73.88 -0.58 C73.88 -0.15, 73.88 0.28, 73.88 0.58 M73.88 0.58 C73.86 0.89, 73.84 1.21, 73.81 1.73 M73.88 0.58 C73.86 0.94, 73.83 1.31, 73.81 1.73 M73.81 1.73 C73.77 2, 73.74 2.27, 73.66 2.87 M73.81 1.73 C73.77 2.01, 73.73 2.3, 73.66 2.87 M73.66 2.87 C73.61 3.14, 73.56 3.4, 73.44 4.01 M73.66 2.87 C73.57 3.32, 73.49 3.76, 73.44 4.01 M73.44 4.01 C73.33 4.41, 73.23 4.8, 73.15 5.12 M73.44 4.01 C73.36 4.3, 73.28 4.6, 73.15 5.12 M73.15 5.12 C73 5.55, 72.86 5.98, 72.78 6.22 M73.15 5.12 C73.03 5.46, 72.92 5.8, 72.78 6.22 M72.78 6.22 C72.63 6.6, 72.48 6.98, 72.35 7.29 M72.78 6.22 C72.69 6.45, 72.59 6.69, 72.35 7.29 M72.35 7.29 C72.19 7.63, 72.02 7.97, 71.85 8.33 M72.35 7.29 C72.19 7.61, 72.03 7.94, 71.85 8.33 M71.85 8.33 C71.64 8.7, 71.43 9.08, 71.28 9.33 M71.85 8.33 C71.68 8.63, 71.51 8.93, 71.28 9.33 M71.28 9.33 C71.04 9.71, 70.79 10.09, 70.65 10.3 M71.28 9.33 C71.11 9.6, 70.93 9.87, 70.65 10.3 M70.65 10.3 C70.44 10.59, 70.22 10.88, 69.96 11.22 M70.65 10.3 C70.5 10.51, 70.34 10.72, 69.96 11.22 M69.96 11.22 C69.79 11.43, 69.61 11.64, 69.22 12.1 M69.96 11.22 C69.72 11.51, 69.48 11.79, 69.22 12.1 M69.22 12.1 C68.98 12.35, 68.74 12.59, 68.41 12.93 M69.22 12.1 C68.95 12.38, 68.68 12.65, 68.41 12.93 M68.41 12.93 C68.11 13.21, 67.8 13.48, 67.56 13.71 M68.41 12.93 C68.15 13.17, 67.89 13.4, 67.56 13.71 M67.56 13.71 C67.27 13.93, 66.99 14.16, 66.66 14.43 M67.56 13.71 C67.33 13.89, 67.1 14.07, 66.66 14.43 M66.66 14.43 C66.42 14.59, 66.19 14.75, 65.71 15.09 M66.66 14.43 C66.36 14.63, 66.07 14.83, 65.71 15.09 M65.71 15.09 C65.46 15.24, 65.21 15.39, 64.72 15.68 M65.71 15.09 C65.49 15.22, 65.27 15.35, 64.72 15.68 M64.72 15.68 C64.49 15.81, 64.26 15.93, 63.7 16.22 M64.72 15.68 C64.44 15.83, 64.15 15.98, 63.7 16.22 M63.7 16.22 C63.3 16.39, 62.91 16.57, 62.65 16.68 M63.7 16.22 C63.37 16.37, 63.03 16.51, 62.65 16.68 M62.65 16.68 C62.37 16.78, 62.1 16.88, 61.56 17.08 M62.65 16.68 C62.43 16.77, 62.21 16.85, 61.56 17.08 M61.56 17.08 C61.2 17.19, 60.84 17.3, 60.46 17.41 M61.56 17.08 C61.26 17.17, 60.96 17.26, 60.46 17.41 M60.46 17.41 C60.18 17.47, 59.91 17.54, 59.33 17.67 M60.46 17.41 C60.06 17.5, 59.67 17.59, 59.33 17.67 M59.33 17.67 C59.01 17.72, 58.68 17.77, 58.19 17.85 M59.33 17.67 C58.97 17.73, 58.6 17.79, 58.19 17.85 M58.19 17.85 C57.85 17.88, 57.52 17.92, 57.04 17.96 M58.19 17.85 C57.78 17.89, 57.38 17.93, 57.04 17.96 M57.04 17.96 C56.63 17.98, 56.21 17.99, 55.89 18 M57.04 17.96 C56.8 17.97, 56.55 17.98, 55.89 18 M55.89 18 C55.89 18, 55.89 18, 55.89 18 M55.89 18 C55.89 18, 55.89 18, 55.89 18 M55.89 18 C31.96 18, 8.04 18, -55.89 18 M55.89 18 C23.91 18, -8.07 18, -55.89 18 M-55.89 18 C-56.28 17.99, -56.66 17.98, -57.04 17.96 M-55.89 18 C-56.3 17.99, -56.71 17.97, -57.04 17.96 M-57.04 17.96 C-57.36 17.93, -57.67 17.9, -58.19 17.85 M-57.04 17.96 C-57.29 17.94, -57.54 17.92, -58.19 17.85 M-58.19 17.85 C-58.58 17.79, -58.97 17.73, -59.33 17.67 M-58.19 17.85 C-58.48 17.81, -58.76 17.76, -59.33 17.67 M-59.33 17.67 C-59.59 17.61, -59.84 17.55, -60.46 17.41 M-59.33 17.67 C-59.71 17.58, -60.09 17.5, -60.46 17.41 M-60.46 17.41 C-60.68 17.34, -60.91 17.28, -61.56 17.08 M-60.46 17.41 C-60.68 17.35, -60.9 17.28, -61.56 17.08 M-61.56 17.08 C-61.92 16.95, -62.27 16.82, -62.65 16.68 M-61.56 17.08 C-61.78 17, -62 16.92, -62.65 16.68 M-62.65 16.68 C-62.92 16.56, -63.2 16.44, -63.7 16.22 M-62.65 16.68 C-63.06 16.5, -63.47 16.32, -63.7 16.22 M-63.7 16.22 C-64.04 16.04, -64.38 15.86, -64.72 15.68 M-63.7 16.22 C-63.93 16.1, -64.17 15.97, -64.72 15.68 M-64.72 15.68 C-64.99 15.52, -65.25 15.36, -65.71 15.09 M-64.72 15.68 C-65.06 15.48, -65.39 15.28, -65.71 15.09 M-65.71 15.09 C-65.9 14.95, -66.1 14.81, -66.66 14.43 M-65.71 15.09 C-65.91 14.95, -66.11 14.81, -66.66 14.43 M-66.66 14.43 C-66.94 14.2, -67.22 13.98, -67.56 13.71 M-66.66 14.43 C-66.88 14.25, -67.1 14.07, -67.56 13.71 M-67.56 13.71 C-67.73 13.55, -67.91 13.39, -68.41 12.93 M-67.56 13.71 C-67.73 13.55, -67.91 13.39, -68.41 12.93 M-68.41 12.93 C-68.7 12.64, -68.98 12.34, -69.22 12.1 M-68.41 12.93 C-68.59 12.75, -68.77 12.56, -69.22 12.1 M-69.22 12.1 C-69.44 11.84, -69.67 11.57, -69.96 11.22 M-69.22 12.1 C-69.46 11.81, -69.71 11.52, -69.96 11.22 M-69.96 11.22 C-70.17 10.95, -70.38 10.67, -70.65 10.3 M-69.96 11.22 C-70.18 10.93, -70.4 10.63, -70.65 10.3 M-70.65 10.3 C-70.8 10.08, -70.94 9.86, -71.28 9.33 M-70.65 10.3 C-70.8 10.07, -70.95 9.84, -71.28 9.33 M-71.28 9.33 C-71.41 9.1, -71.54 8.88, -71.85 8.33 M-71.28 9.33 C-71.48 8.99, -71.67 8.65, -71.85 8.33 M-71.85 8.33 C-71.95 8.11, -72.06 7.9, -72.35 7.29 M-71.85 8.33 C-71.98 8.05, -72.12 7.77, -72.35 7.29 M-72.35 7.29 C-72.46 7.01, -72.57 6.74, -72.78 6.22 M-72.35 7.29 C-72.51 6.89, -72.67 6.5, -72.78 6.22 M-72.78 6.22 C-72.92 5.82, -73.05 5.42, -73.15 5.12 M-72.78 6.22 C-72.92 5.81, -73.06 5.39, -73.15 5.12 M-73.15 5.12 C-73.23 4.8, -73.31 4.48, -73.44 4.01 M-73.15 5.12 C-73.24 4.77, -73.33 4.41, -73.44 4.01 M-73.44 4.01 C-73.49 3.75, -73.54 3.5, -73.66 2.87 M-73.44 4.01 C-73.51 3.65, -73.58 3.3, -73.66 2.87 M-73.66 2.87 C-73.7 2.58, -73.74 2.28, -73.81 1.73 M-73.66 2.87 C-73.72 2.44, -73.77 2, -73.81 1.73 M-73.81 1.73 C-73.83 1.39, -73.85 1.05, -73.88 0.58 M-73.81 1.73 C-73.84 1.28, -73.87 0.83, -73.88 0.58 M-73.88 0.58 C-73.88 0.31, -73.88 0.04, -73.88 -0.58 M-73.88 0.58 C-73.88 0.33, -73.88 0.08, -73.88 -0.58 M-73.88 -0.58 C-73.86 -0.86, -73.85 -1.13, -73.81 -1.73 M-73.88 -0.58 C-73.86 -0.89, -73.84 -1.21, -73.81 -1.73 M-73.81 -1.73 C-73.77 -2.01, -73.74 -2.29, -73.66 -2.87 M-73.81 -1.73 C-73.77 -1.98, -73.74 -2.24, -73.66 -2.87 M-73.66 -2.87 C-73.61 -3.15, -73.55 -3.42, -73.44 -4.01 M-73.66 -2.87 C-73.59 -3.25, -73.51 -3.63, -73.44 -4.01 M-73.44 -4.01 C-73.37 -4.27, -73.3 -4.53, -73.15 -5.12 M-73.44 -4.01 C-73.37 -4.27, -73.3 -4.54, -73.15 -5.12 M-73.15 -5.12 C-73.05 -5.4, -72.96 -5.68, -72.78 -6.22 M-73.15 -5.12 C-73.03 -5.48, -72.91 -5.84, -72.78 -6.22 M-72.78 -6.22 C-72.67 -6.51, -72.55 -6.8, -72.35 -7.29 M-72.78 -6.22 C-72.68 -6.46, -72.58 -6.71, -72.35 -7.29 M-72.35 -7.29 C-72.25 -7.5, -72.15 -7.7, -71.85 -8.33 M-72.35 -7.29 C-72.22 -7.55, -72.09 -7.82, -71.85 -8.33 M-71.85 -8.33 C-71.7 -8.6, -71.55 -8.86, -71.28 -9.33 M-71.85 -8.33 C-71.73 -8.53, -71.61 -8.74, -71.28 -9.33 M-71.28 -9.33 C-71.07 -9.66, -70.85 -10, -70.65 -10.3 M-71.28 -9.33 C-71.07 -9.65, -70.86 -9.98, -70.65 -10.3 M-70.65 -10.3 C-70.39 -10.65, -70.13 -10.99, -69.96 -11.22 M-70.65 -10.3 C-70.39 -10.65, -70.13 -11, -69.96 -11.22 M-69.96 -11.22 C-69.73 -11.5, -69.49 -11.78, -69.22 -12.1 M-69.96 -11.22 C-69.79 -11.43, -69.61 -11.63, -69.22 -12.1 M-69.22 -12.1 C-68.96 -12.37, -68.7 -12.63, -68.41 -12.93 M-69.22 -12.1 C-69.03 -12.29, -68.85 -12.47, -68.41 -12.93 M-68.41 -12.93 C-68.19 -13.13, -67.97 -13.33, -67.56 -13.71 M-68.41 -12.93 C-68.19 -13.13, -67.97 -13.34, -67.56 -13.71 M-67.56 -13.71 C-67.35 -13.87, -67.15 -14.03, -66.66 -14.43 M-67.56 -13.71 C-67.22 -13.97, -66.89 -14.24, -66.66 -14.43 M-66.66 -14.43 C-66.47 -14.56, -66.27 -14.69, -65.71 -15.09 M-66.66 -14.43 C-66.38 -14.62, -66.1 -14.82, -65.71 -15.09 M-65.71 -15.09 C-65.32 -15.32, -64.94 -15.55, -64.72 -15.68 M-65.71 -15.09 C-65.34 -15.31, -64.98 -15.53, -64.72 -15.68 M-64.72 -15.68 C-64.38 -15.86, -64.04 -16.04, -63.7 -16.22 M-64.72 -15.68 C-64.46 -15.82, -64.19 -15.96, -63.7 -16.22 M-63.7 -16.22 C-63.48 -16.31, -63.27 -16.41, -62.65 -16.68 M-63.7 -16.22 C-63.46 -16.32, -63.22 -16.43, -62.65 -16.68 M-62.65 -16.68 C-62.36 -16.79, -62.07 -16.9, -61.56 -17.08 M-62.65 -16.68 C-62.25 -16.83, -61.86 -16.97, -61.56 -17.08 M-61.56 -17.08 C-61.23 -17.18, -60.89 -17.28, -60.46 -17.41 M-61.56 -17.08 C-61.13 -17.21, -60.7 -17.34, -60.46 -17.41 M-60.46 -17.41 C-60.08 -17.5, -59.71 -17.58, -59.33 -17.67 M-60.46 -17.41 C-60.13 -17.49, -59.8 -17.56, -59.33 -17.67 M-59.33 -17.67 C-59 -17.72, -58.66 -17.78, -58.19 -17.85 M-59.33 -17.67 C-58.88 -17.74, -58.43 -17.81, -58.19 -17.85 M-58.19 -17.85 C-57.96 -17.87, -57.73 -17.9, -57.04 -17.96 M-58.19 -17.85 C-57.88 -17.88, -57.57 -17.91, -57.04 -17.96 M-57.04 -17.96 C-56.81 -17.97, -56.57 -17.98, -55.89 -18 M-57.04 -17.96 C-56.59 -17.98, -56.13 -17.99, -55.89 -18 M-55.89 -18 C-55.89 -18, -55.89 -18, -55.89 -18 M-55.89 -18 C-55.89 -18, -55.89 -18, -55.89 -18" stroke="#9a948d" stroke-width="1.3" fill="none" stroke-dasharray="0 0" style="fill:#fff !important;stroke:#9a948d !important"></path></g><g class="label" style="color:#191b1c !important" transform="translate(-61.89, -10.5)"><rect></rect><foreignObject width="123.78125" height="21"><div style="color: rgb(25, 27, 28) !important; display: table-cell; white-space: nowrap; line-height: 1.5; max-width: 200px; text-align: center;" xmlns="http://www.w3.org/1999/xhtml"><span style="color:#191b1c !important" class="nodeLabel "><p>Someone scans it</p></span></div></foreignObject></g></g><g class="node default plain " id="d16-flowchart-HIT-3" data-look="classic" transform="translate(791.95, 111)"><rect class="basic label-container" style="fill:#fff !important;stroke:#9a948d !important" x="-64.953125" y="-25.5" width="129.90625" height="51"></rect><g class="label" style="color:#191b1c !important" transform="translate(-34.95, -10.5)"><rect></rect><foreignObject width="69.90625" height="21"><div style="color: rgb(25, 27, 28) !important; display: table-cell; white-space: nowrap; line-height: 1.5; max-width: 200px; text-align: center;" xmlns="http://www.w3.org/1999/xhtml"><span style="color:#191b1c !important" class="nodeLabel "><p>/q/{code}</p></span></div></foreignObject></g></g><g class="node default core " id="d16-flowchart-REC-4" data-look="classic" transform="translate(1014.41, 111)"><path d="M0,15.81 a107.5,15.81 0,0,0 215,0 a107.5,15.81 0,0,0 -215,0 l0,135.81 a107.5,15.81 0,0,0 215,0 l0,-135.81" class="basic label-container outer-path" style="fill:#22252a !important;stroke:#22252a !important" label-offset-y="15.808823529411764" transform="translate(-107.5, -83.71)"></path><g class="label" style="color:#fff !important" transform="translate(-100, -42.5)"><rect></rect><foreignObject width="200" height="105"><div style="color: rgb(255, 255, 255) !important; display: table; white-space: break-spaces; line-height: 1.5; max-width: 200px; text-align: center; width: 200px;" xmlns="http://www.w3.org/1999/xhtml"><span style="color:#fff !important" class="nodeLabel "><p>Scan recorded<br/>repeat from the same device<br/>within a day is not a new person</p></span></div></foreignObject></g></g><g class="node default plain " id="d16-flowchart-FWD-5" data-look="classic" transform="translate(1301.91, 65)"><rect class="basic label-container" style="fill:#fff !important;stroke:#9a948d !important" x="-130" y="-57" width="260" height="114"></rect><g class="label" style="color:#191b1c !important" transform="translate(-100, -42)"><rect></rect><foreignObject width="200" height="84"><div style="color: rgb(25, 27, 28) !important; display: table; white-space: break-spaces; line-height: 1.5; max-width: 200px; text-align: center; width: 200px;" xmlns="http://www.w3.org/1999/xhtml"><span style="color:#191b1c !important" class="nodeLabel "><p>Forwarded to the target page<br/>with campaign tags attached</p></span></div></foreignObject></g></g><g class="node default fair " id="d16-flowchart-REG-6" data-look="classic" transform="translate(1597.41, 65)"><rect class="basic label-container" style="fill:#b64698 !important;stroke:#8d3376 !important" x="-115.5" y="-36" width="231" height="72"></rect><g class="label" style="color:#fff !important" transform="translate(-85.5, -21)"><rect></rect><foreignObject width="171" height="42"><div style="color: rgb(255, 255, 255) !important; display: table-cell; white-space: nowrap; line-height: 1.5; max-width: 200px; text-align: center;" xmlns="http://www.w3.org/1999/xhtml"><span style="color:#fff !important" class="nodeLabel "><p>Registration, tagged<br/>with where it came from</p></span></div></foreignObject></g></g><g class="node default plain " id="d16-flowchart-REP-7" data-look="classic" transform="translate(1892.91, 111)"><rect class="basic label-container" style="fill:#fff !important;stroke:#9a948d !important" x="-130" y="-46.5" width="260" height="93"></rect><g class="label" style="color:#191b1c !important" transform="translate(-100, -31.5)"><rect></rect><foreignObject width="200" height="63"><div style="color: rgb(25, 27, 28) !important; display: table; white-space: break-spaces; line-height: 1.5; max-width: 200px; text-align: center; width: 200px;" xmlns="http://www.w3.org/1999/xhtml"><span style="color:#191b1c !important" class="nodeLabel "><p>Reports: scans, unique<br/>scans, registrations per campaign</p></span></div></foreignObject></g></g></g></g></g><defs><filter id="d16-drop-shadow" height="130%" width="130%"><feDropShadow dx="4" dy="4" stdDeviation="0" flood-opacity="0.06" flood-color="#000000"></feDropShadow></filter></defs><defs><filter id="d16-drop-shadow-small" height="150%" width="150%"><feDropShadow dx="2" dy="2" stdDeviation="0" flood-opacity="0.06" flood-color="#000000"></feDropShadow></filter></defs><linearGradient id="d16-gradient" gradientUnits="objectBoundingBox" x1="0%" y1="0%" x2="100%" y2="0%"><stop offset="0%" stop-color="#9a948d" stop-opacity="1"></stop><stop offset="100%" stop-color="hsl(30, 0%, 80.1960784314%)" stop-opacity="1"></stop></linearGradient></svg>